<mxfile host="app.diagrams.net" modified="2023-10-23T00:49:51.364Z" agent="Mozilla/5.0 (Windows NT 10.0; Win64; x64) AppleWebKit/537.36 (KHTML, like Gecko) Chrome/118.0.0.0 Safari/537.36" etag="q3a1A8RLLrwjDhtrLgOd" version="22.0.6" type="github">
  <diagram name="Página-1" id="15mKUYAxCKkHnkBByT2d">
    <mxGraphModel dx="1035" dy="562" grid="1" gridSize="10" guides="1" tooltips="1" connect="1" arrows="1" fold="1" page="1" pageScale="1" pageWidth="827" pageHeight="1169" math="0" shadow="0">
      <root>
        <mxCell id="0" />
        <mxCell id="1" parent="0" />
        <mxCell id="22cl1ku2muQqWQ5JsjKB-14" style="edgeStyle=orthogonalEdgeStyle;rounded=0;orthogonalLoop=1;jettySize=auto;html=1;exitX=0.5;exitY=0;exitDx=0;exitDy=0;entryX=0;entryY=0.5;entryDx=0;entryDy=0;entryPerimeter=0;" edge="1" parent="1" source="22cl1ku2muQqWQ5JsjKB-1" target="22cl1ku2muQqWQ5JsjKB-13">
          <mxGeometry relative="1" as="geometry">
            <mxPoint x="130" y="40" as="targetPoint" />
            <Array as="points">
              <mxPoint x="130" y="100" />
              <mxPoint x="120" y="100" />
              <mxPoint x="120" y="45" />
            </Array>
          </mxGeometry>
        </mxCell>
        <mxCell id="22cl1ku2muQqWQ5JsjKB-37" style="edgeStyle=orthogonalEdgeStyle;rounded=0;orthogonalLoop=1;jettySize=auto;html=1;entryX=0;entryY=0.5;entryDx=0;entryDy=0;" edge="1" parent="1" source="22cl1ku2muQqWQ5JsjKB-1" target="22cl1ku2muQqWQ5JsjKB-33">
          <mxGeometry relative="1" as="geometry" />
        </mxCell>
        <mxCell id="22cl1ku2muQqWQ5JsjKB-1" value="Companhia Area" style="rounded=0;whiteSpace=wrap;html=1;" vertex="1" parent="1">
          <mxGeometry x="70" y="160" width="120" height="60" as="geometry" />
        </mxCell>
        <mxCell id="22cl1ku2muQqWQ5JsjKB-9" style="edgeStyle=orthogonalEdgeStyle;rounded=0;orthogonalLoop=1;jettySize=auto;html=1;" edge="1" parent="1" source="22cl1ku2muQqWQ5JsjKB-3" target="22cl1ku2muQqWQ5JsjKB-5">
          <mxGeometry relative="1" as="geometry" />
        </mxCell>
        <mxCell id="22cl1ku2muQqWQ5JsjKB-3" value="Voos" style="rounded=0;whiteSpace=wrap;html=1;" vertex="1" parent="1">
          <mxGeometry x="590" y="160" width="120" height="60" as="geometry" />
        </mxCell>
        <mxCell id="22cl1ku2muQqWQ5JsjKB-35" style="edgeStyle=orthogonalEdgeStyle;rounded=0;orthogonalLoop=1;jettySize=auto;html=1;entryX=1;entryY=0.5;entryDx=0;entryDy=0;" edge="1" parent="1" source="22cl1ku2muQqWQ5JsjKB-5" target="22cl1ku2muQqWQ5JsjKB-6">
          <mxGeometry relative="1" as="geometry" />
        </mxCell>
        <mxCell id="22cl1ku2muQqWQ5JsjKB-5" value="Passageiros" style="rounded=0;whiteSpace=wrap;html=1;" vertex="1" parent="1">
          <mxGeometry x="590" y="320" width="120" height="60" as="geometry" />
        </mxCell>
        <mxCell id="22cl1ku2muQqWQ5JsjKB-6" value="Dependente" style="rounded=0;whiteSpace=wrap;html=1;" vertex="1" parent="1">
          <mxGeometry x="330" y="320" width="120" height="60" as="geometry" />
        </mxCell>
        <mxCell id="22cl1ku2muQqWQ5JsjKB-11" value="" style="endArrow=none;html=1;rounded=0;" edge="1" parent="1">
          <mxGeometry width="50" height="50" relative="1" as="geometry">
            <mxPoint x="160" y="120" as="sourcePoint" />
            <mxPoint x="160" y="40" as="targetPoint" />
            <Array as="points">
              <mxPoint x="160" y="150" />
              <mxPoint x="160" y="120" />
            </Array>
          </mxGeometry>
        </mxCell>
        <mxCell id="22cl1ku2muQqWQ5JsjKB-13" value="" style="shape=crossbar;whiteSpace=wrap;html=1;rounded=1;" vertex="1" parent="1">
          <mxGeometry x="160" y="40" width="30" height="10" as="geometry" />
        </mxCell>
        <mxCell id="22cl1ku2muQqWQ5JsjKB-21" value="id Voo" style="text;html=1;align=center;verticalAlign=middle;resizable=0;points=[];autosize=1;strokeColor=none;fillColor=none;" vertex="1" parent="1">
          <mxGeometry x="190" y="30" width="60" height="30" as="geometry" />
        </mxCell>
        <mxCell id="22cl1ku2muQqWQ5JsjKB-22" value="numero avião" style="text;html=1;align=center;verticalAlign=middle;resizable=0;points=[];autosize=1;strokeColor=none;fillColor=none;" vertex="1" parent="1">
          <mxGeometry x="190" y="50" width="100" height="30" as="geometry" />
        </mxCell>
        <mxCell id="22cl1ku2muQqWQ5JsjKB-23" value="" style="shape=crossbar;whiteSpace=wrap;html=1;rounded=1;" vertex="1" parent="1">
          <mxGeometry x="160" y="60" width="30" height="10" as="geometry" />
        </mxCell>
        <mxCell id="22cl1ku2muQqWQ5JsjKB-24" value="cidade de origem" style="text;html=1;align=center;verticalAlign=middle;resizable=0;points=[];autosize=1;strokeColor=none;fillColor=none;" vertex="1" parent="1">
          <mxGeometry x="190" y="70" width="120" height="30" as="geometry" />
        </mxCell>
        <mxCell id="22cl1ku2muQqWQ5JsjKB-25" value="" style="shape=crossbar;whiteSpace=wrap;html=1;rounded=1;" vertex="1" parent="1">
          <mxGeometry x="160" y="80" width="30" height="10" as="geometry" />
        </mxCell>
        <mxCell id="22cl1ku2muQqWQ5JsjKB-26" value="" style="shape=crossbar;whiteSpace=wrap;html=1;rounded=1;" vertex="1" parent="1">
          <mxGeometry x="160" y="100" width="30" height="10" as="geometry" />
        </mxCell>
        <mxCell id="22cl1ku2muQqWQ5JsjKB-27" value=", cidade de destino" style="text;html=1;align=center;verticalAlign=middle;resizable=0;points=[];autosize=1;strokeColor=none;fillColor=none;" vertex="1" parent="1">
          <mxGeometry x="190" y="90" width="120" height="30" as="geometry" />
        </mxCell>
        <mxCell id="22cl1ku2muQqWQ5JsjKB-28" value="" style="shape=crossbar;whiteSpace=wrap;html=1;rounded=1;" vertex="1" parent="1">
          <mxGeometry x="160" y="120" width="30" height="10" as="geometry" />
        </mxCell>
        <mxCell id="22cl1ku2muQqWQ5JsjKB-29" value="data do voo " style="text;html=1;align=center;verticalAlign=middle;resizable=0;points=[];autosize=1;strokeColor=none;fillColor=none;" vertex="1" parent="1">
          <mxGeometry x="190" y="110" width="90" height="30" as="geometry" />
        </mxCell>
        <mxCell id="22cl1ku2muQqWQ5JsjKB-31" value="" style="shape=crossbar;whiteSpace=wrap;html=1;rounded=1;" vertex="1" parent="1">
          <mxGeometry x="160" y="140" width="30" height="10" as="geometry" />
        </mxCell>
        <mxCell id="22cl1ku2muQqWQ5JsjKB-32" value="hora do voo " style="text;html=1;align=center;verticalAlign=middle;resizable=0;points=[];autosize=1;strokeColor=none;fillColor=none;" vertex="1" parent="1">
          <mxGeometry x="190" y="130" width="90" height="30" as="geometry" />
        </mxCell>
        <mxCell id="22cl1ku2muQqWQ5JsjKB-36" style="edgeStyle=orthogonalEdgeStyle;rounded=0;orthogonalLoop=1;jettySize=auto;html=1;entryX=0;entryY=0.5;entryDx=0;entryDy=0;" edge="1" parent="1" source="22cl1ku2muQqWQ5JsjKB-33" target="22cl1ku2muQqWQ5JsjKB-3">
          <mxGeometry relative="1" as="geometry" />
        </mxCell>
        <mxCell id="22cl1ku2muQqWQ5JsjKB-39" style="edgeStyle=orthogonalEdgeStyle;rounded=0;orthogonalLoop=1;jettySize=auto;html=1;" edge="1" parent="1" source="22cl1ku2muQqWQ5JsjKB-33">
          <mxGeometry relative="1" as="geometry">
            <mxPoint x="440" y="80" as="targetPoint" />
            <Array as="points">
              <mxPoint x="390" y="115" />
              <mxPoint x="391" y="70" />
            </Array>
          </mxGeometry>
        </mxCell>
        <mxCell id="22cl1ku2muQqWQ5JsjKB-33" value="Assentos" style="rounded=0;whiteSpace=wrap;html=1;" vertex="1" parent="1">
          <mxGeometry x="330" y="160" width="120" height="60" as="geometry" />
        </mxCell>
        <mxCell id="22cl1ku2muQqWQ5JsjKB-38" value="" style="endArrow=none;html=1;rounded=0;" edge="1" parent="1">
          <mxGeometry width="50" height="50" relative="1" as="geometry">
            <mxPoint x="440" y="150" as="sourcePoint" />
            <mxPoint x="440" y="80" as="targetPoint" />
            <Array as="points" />
          </mxGeometry>
        </mxCell>
        <mxCell id="22cl1ku2muQqWQ5JsjKB-40" value="" style="shape=crossbar;whiteSpace=wrap;html=1;rounded=1;" vertex="1" parent="1">
          <mxGeometry x="370" y="190" width="120" height="20" as="geometry" />
        </mxCell>
        <mxCell id="22cl1ku2muQqWQ5JsjKB-41" value="" style="shape=crossbar;whiteSpace=wrap;html=1;rounded=1;" vertex="1" parent="1">
          <mxGeometry x="440" y="75" width="40" height="20" as="geometry" />
        </mxCell>
      </root>
    </mxGraphModel>
  </diagram>
</mxfile>
